<svg id="svg" version="1.1" xmlns="http://www.w3.org/2000/svg" xmlns:xlink="http://www.w3.org/1999/xlink" width="400" height="400" viewBox="0, 0, 400,400"><g id="svgg"><path id="path0" d="M299.000 86.754 C 296.493 87.958,294.149 90.151,292.109 93.200 C 289.007 97.835,276.504 123.035,269.386 139.000 C 265.966 146.670,261.501 156.569,261.400 156.706 C 261.357 156.764,260.259 156.315,258.961 155.708 C 251.994 152.453,240.071 157.244,226.906 168.590 C 217.554 176.650,211.145 185.136,205.238 197.283 C 200.761 206.488,191.434 216.199,180.962 222.557 C 171.313 228.415,157.600 227.314,157.600 220.680 C 157.600 217.804,167.370 208.915,177.000 203.028 C 182.896 199.423,183.756 198.725,184.736 196.744 L 185.573 195.051 184.723 193.626 C 182.118 189.258,180.473 189.004,173.000 191.815 C 165.017 194.818,163.242 194.646,165.337 191.071 C 167.924 186.657,183.161 174.387,184.799 175.399 C 185.019 175.536,185.200 176.242,185.200 176.970 C 185.200 183.614,197.393 179.490,201.376 171.498 C 202.689 168.864,202.888 162.952,201.700 161.910 C 191.909 153.325,156.303 172.444,152.131 188.526 C 150.623 194.343,152.343 201.213,155.822 203.266 C 157.683 204.364,157.659 204.412,153.961 207.003 C 148.687 210.699,145.589 213.944,144.038 217.400 C 142.607 220.590,143.194 228.588,145.071 231.452 C 146.687 233.919,142.423 232.646,137.371 229.154 C 130.475 224.387,96.405 191.785,96.868 190.396 C 96.967 190.099,99.377 188.934,102.224 187.806 C 114.986 182.752,127.195 175.896,137.424 168.039 C 175.023 139.160,154.956 104.239,105.065 111.727 C 69.687 117.036,31.856 139.878,31.830 155.944 C 31.814 165.863,40.893 169.026,50.698 162.517 C 58.103 157.602,60.250 152.736,53.660 155.804 C 46.659 159.063,50.966 152.153,59.807 145.943 C 68.441 139.878,81.888 133.360,93.893 129.420 C 98.615 127.870,98.943 128.110,96.139 131.062 C 92.827 134.549,86.280 145.606,71.784 172.200 C 71.305 173.080,68.754 177.760,66.116 182.600 C 41.557 227.656,38.373 234.415,38.295 241.639 C 38.257 245.119,38.510 245.632,40.857 246.829 C 42.689 247.764,43.739 247.785,48.029 246.971 C 53.981 245.842,54.974 244.908,57.853 237.736 C 59.914 232.601,61.397 229.230,64.048 223.655 C 65.342 220.935,66.400 218.656,66.400 218.590 C 66.400 218.241,77.196 196.486,77.683 195.853 C 78.229 195.144,78.327 195.186,79.629 196.688 C 83.711 201.398,102.427 221.141,108.437 227.078 C 129.792 248.173,136.617 250.418,146.182 239.494 C 149.292 235.942,149.099 235.988,153.825 237.679 C 157.135 238.863,157.770 238.957,162.400 238.945 C 175.396 238.911,184.522 235.526,195.738 226.579 C 201.030 222.358,200.783 222.396,202.382 225.564 C 208.991 238.657,227.390 230.406,244.303 206.766 C 248.293 201.188,248.554 201.191,247.133 206.800 C 246.106 210.849,245.870 219.513,246.711 222.282 C 248.638 228.633,258.198 230.791,266.726 226.800 C 272.767 223.973,283.053 213.512,285.894 207.307 L 286.947 205.007 286.280 201.095 C 284.893 192.968,284.166 192.898,277.990 200.300 C 267.764 212.557,262.770 216.497,259.606 214.803 C 255.992 212.869,258.355 203.297,269.036 176.600 C 275.359 160.795,285.850 137.278,293.214 122.400 C 294.140 120.530,295.753 117.200,296.799 115.000 C 297.845 112.800,300.321 107.670,302.300 103.600 C 306.186 95.612,308.800 89.565,308.800 88.565 C 308.800 85.635,303.404 84.638,299.000 86.754 M330.800 89.457 C 326.644 90.234,324.286 91.876,322.192 95.449 C 319.877 99.400,311.648 119.791,308.605 129.118 L 307.522 132.437 308.461 133.830 C 311.116 137.771,315.061 138.688,317.797 136.002 C 323.423 130.481,336.445 102.696,337.472 94.021 C 337.868 90.679,334.947 88.680,330.800 89.457 M123.775 125.209 C 144.264 126.686,146.360 134.945,130.406 151.347 C 118.244 163.851,96.025 177.600,87.979 177.600 C 86.861 177.600,88.285 174.531,95.042 162.381 C 109.577 136.247,110.306 134.575,108.236 132.116 C 106.831 130.446,103.769 128.687,101.800 128.418 C 97.026 127.767,105.176 125.931,117.600 124.859 C 117.930 124.830,120.709 124.988,123.775 125.209 M366.200 137.082 C 359.675 137.964,346.615 143.667,337.379 149.667 C 321.413 160.039,314.187 172.491,318.753 181.765 C 321.337 187.015,325.006 188.206,350.436 192.052 C 359.030 193.352,356.304 198.701,344.718 203.271 C 340.469 204.947,330.078 207.342,328.881 206.921 C 327.126 206.304,325.641 204.730,325.004 202.811 C 322.389 194.939,313.995 200.556,314.002 210.173 C 314.009 218.446,318.112 221.352,329.800 221.363 L 336.600 221.369 341.200 219.848 C 359.394 213.829,372.712 201.505,371.904 191.435 C 371.207 182.754,363.338 178.779,342.079 176.369 C 329.370 174.928,329.241 174.777,335.361 168.452 C 341.912 161.681,349.262 156.919,357.357 154.202 C 362.166 152.588,362.913 152.810,361.950 155.571 C 360.430 159.933,366.561 161.361,372.986 158.142 C 380.569 154.343,384.209 146.329,380.911 140.697 C 379.064 137.543,373.288 136.124,366.200 137.082 M255.716 167.900 C 253.271 174.518,231.839 204.142,223.179 212.875 C 217.382 218.720,215.600 219.057,215.600 214.310 C 215.600 203.872,228.227 184.224,241.232 174.424 C 247.681 169.565,256.583 165.555,255.716 167.900 M180.800 240.525 C 180.800 240.594,181.385 241.179,182.100 241.825 L 183.400 243.000 182.225 241.700 C 181.130 240.488,180.800 240.216,180.800 240.525 M179.578 247.900 L 178.200 249.400 179.700 248.022 C 180.525 247.263,181.200 246.588,181.200 246.522 C 181.200 246.216,180.862 246.504,179.578 247.900 M164.386 251.100 L 162.200 253.400 164.500 251.214 C 166.637 249.182,166.983 248.800,166.686 248.800 C 166.624 248.800,165.589 249.835,164.386 251.100 M244.181 250.900 L 242.600 252.600 244.300 251.019 C 245.235 250.149,246.000 249.384,246.000 249.319 C 246.000 249.016,245.652 249.319,244.181 250.900 M253.900 251.212 C 254.438 251.429,254.819 251.942,254.846 252.487 C 254.882 253.194,254.935 253.238,255.079 252.681 C 255.308 251.799,254.532 250.791,253.651 250.825 C 253.210 250.843,253.291 250.968,253.900 251.212 M179.785 254.900 L 177.800 257.000 179.900 255.015 C 181.055 253.923,182.000 252.978,182.000 252.915 C 182.000 252.617,181.629 252.949,179.785 254.900 M192.975 254.100 L 191.800 255.400 193.100 254.225 C 194.312 253.130,194.584 252.800,194.275 252.800 C 194.206 252.800,193.621 253.385,192.975 254.100 M244.987 255.700 L 242.600 258.200 245.100 255.813 C 246.475 254.499,247.600 253.374,247.600 253.313 C 247.600 253.017,247.205 253.378,244.987 255.700 M239.385 255.700 L 237.400 257.800 239.500 255.815 C 241.451 253.971,241.783 253.600,241.485 253.600 C 241.422 253.600,240.477 254.545,239.385 255.700 M197.362 254.462 C 197.173 254.767,197.254 254.814,197.599 254.601 C 197.928 254.397,198.321 254.551,198.661 255.015 C 198.957 255.421,199.200 255.575,199.200 255.356 C 199.200 254.344,197.843 253.684,197.362 254.462 M182.378 256.300 L 181.000 257.800 182.500 256.422 C 183.896 255.138,184.184 254.800,183.878 254.800 C 183.812 254.800,183.137 255.475,182.378 256.300 M195.375 256.100 L 194.200 257.400 195.500 256.225 C 196.712 255.130,196.984 254.800,196.675 254.800 C 196.606 254.800,196.021 255.385,195.375 256.100 M208.778 258.700 L 207.400 260.200 208.900 258.822 C 209.725 258.063,210.400 257.388,210.400 257.322 C 210.400 257.016,210.062 257.304,208.778 258.700 M188.909 262.400 C 188.909 263.390,188.987 263.795,189.082 263.300 C 189.178 262.805,189.178 261.995,189.082 261.500 C 188.987 261.005,188.909 261.410,188.909 262.400 M197.775 262.500 L 196.600 263.800 197.900 262.625 C 199.112 261.530,199.384 261.200,199.075 261.200 C 199.006 261.200,198.421 261.785,197.775 262.500 M213.206 261.513 C 213.197 262.244,214.366 262.595,214.927 262.029 C 215.292 261.661,215.231 261.617,214.660 261.835 C 214.200 262.010,213.785 261.905,213.566 261.558 C 213.301 261.141,213.211 261.129,213.206 261.513 M226.493 262.400 C 226.493 263.170,226.575 263.485,226.676 263.100 C 226.776 262.715,226.776 262.085,226.676 261.700 C 226.575 261.315,226.493 261.630,226.493 262.400 M160.589 266.900 L 157.800 269.800 160.700 267.011 C 163.394 264.420,163.783 264.000,163.489 264.000 C 163.428 264.000,162.123 265.305,160.589 266.900 M229.505 265.483 C 230.002 265.579,230.722 265.575,231.105 265.475 C 231.487 265.375,231.080 265.296,230.200 265.301 C 229.320 265.305,229.007 265.387,229.505 265.483 M256.500 265.876 C 256.885 265.976,257.515 265.976,257.900 265.876 C 258.285 265.775,257.970 265.693,257.200 265.693 C 256.430 265.693,256.115 265.775,256.500 265.876 M163.600 269.400 C 161.961 271.050,160.710 272.400,160.820 272.400 C 160.930 272.400,162.361 271.050,164.000 269.400 C 165.639 267.750,166.890 266.400,166.780 266.400 C 166.670 266.400,165.239 267.750,163.600 269.400 " stroke="none" fill="#cc3434" fill-rule="evenodd"></path><path id="path1" d="M252.152 239.774 C 251.166 240.203,250.846 240.641,250.627 241.859 C 250.043 245.098,242.018 254.316,235.515 259.215 C 228.815 264.264,229.377 261.774,237.757 249.277 C 242.858 241.671,242.703 241.998,241.669 241.062 C 240.531 240.033,239.610 240.253,236.596 242.276 C 235.058 243.308,232.990 244.460,232.000 244.836 C 229.182 245.906,229.252 248.213,232.100 248.175 C 234.456 248.144,234.467 248.030,231.744 251.825 C 219.915 268.312,230.920 270.258,246.164 254.376 C 252.553 247.720,255.897 242.123,254.635 240.197 C 253.886 239.053,253.830 239.044,252.152 239.774 M266.897 239.817 C 265.107 241.071,260.586 248.178,256.602 256.000 C 254.324 260.473,253.334 261.903,252.287 262.236 C 250.569 262.781,250.683 261.703,252.788 257.499 C 255.034 253.014,255.254 251.493,253.689 251.271 C 252.493 251.101,250.000 253.547,250.000 254.890 C 250.000 255.423,249.280 257.251,248.400 258.951 C 245.447 264.658,246.892 266.646,252.964 265.227 C 254.324 264.909,255.056 264.896,255.344 265.184 C 258.177 268.017,268.400 259.134,268.400 253.839 C 268.400 252.699,266.786 251.268,265.198 251.000 C 263.113 250.647,263.121 250.609,266.448 245.122 C 269.656 239.829,269.831 237.762,266.897 239.817 M222.035 240.632 C 221.360 241.200,219.462 243.711,217.818 246.211 C 215.054 250.415,214.714 250.779,213.314 251.028 C 206.860 252.174,199.195 261.538,202.229 264.571 C 203.422 265.765,207.255 264.862,208.776 263.029 C 209.538 262.111,209.840 262.246,210.255 263.692 C 211.133 266.755,215.195 266.278,217.492 262.841 C 219.246 260.216,218.031 259.037,215.800 261.200 C 211.187 265.671,213.882 258.520,221.755 245.400 C 225.096 239.833,225.205 237.964,222.035 240.632 M173.600 241.326 C 162.823 245.446,152.781 257.333,155.611 262.621 C 156.545 264.366,160.032 264.681,162.685 263.261 C 164.891 262.081,163.765 263.962,159.974 267.788 C 155.346 272.459,154.849 273.132,155.653 273.642 C 157.305 274.688,159.698 273.474,163.200 269.812 C 164.190 268.777,166.915 266.327,169.256 264.368 C 172.924 261.298,174.000 260.164,174.000 259.367 C 174.000 259.275,173.651 259.200,173.224 259.200 C 171.501 259.200,171.934 258.218,175.312 254.470 C 176.170 253.519,177.241 251.899,177.693 250.870 C 178.144 249.842,179.568 247.868,180.857 246.485 C 183.638 243.501,183.666 243.314,181.599 241.447 C 179.555 239.600,178.170 239.579,173.600 241.326 M179.319 243.053 C 180.199 243.932,176.770 246.584,173.761 247.352 C 171.110 248.028,170.703 248.834,172.211 250.423 L 173.400 251.675 171.600 253.251 C 169.580 255.020,160.525 261.200,159.953 261.200 C 157.943 261.200,159.077 257.269,162.180 253.477 C 167.252 247.280,177.384 241.117,179.319 243.053 M256.154 246.209 C 254.958 247.406,255.041 248.548,256.337 248.732 C 258.086 248.981,259.478 246.838,258.320 245.680 C 257.631 244.991,257.289 245.074,256.154 246.209 M287.315 250.747 C 281.884 252.623,278.561 256.237,280.427 258.235 C 281.603 259.494,283.263 260.400,284.393 260.400 C 285.401 260.400,285.936 261.542,285.158 262.034 C 283.814 262.885,281.528 262.328,279.970 260.770 C 278.908 259.708,278.392 259.790,276.000 261.400 C 273.908 262.808,271.537 263.269,270.984 262.375 C 270.597 261.749,271.939 260.446,274.100 259.350 C 276.277 258.246,276.382 257.958,275.000 256.871 C 273.315 255.546,273.662 255.026,276.121 255.190 C 278.270 255.333,280.278 253.098,279.184 251.781 C 277.161 249.343,270.002 253.320,269.259 257.294 C 269.069 258.315,268.437 259.716,267.856 260.406 C 264.635 264.234,269.545 267.112,275.716 265.012 C 277.585 264.376,278.163 264.318,278.716 264.713 C 281.654 266.813,285.887 266.086,289.032 262.941 C 291.239 260.734,290.357 258.881,286.473 257.566 C 284.126 256.771,283.929 255.956,285.806 254.796 C 287.224 253.920,287.283 253.916,288.815 254.607 C 290.378 255.312,290.378 255.312,291.789 254.235 C 295.368 251.506,292.221 249.051,287.315 250.747 M182.960 252.332 C 175.978 257.398,173.498 265.600,178.949 265.600 C 182.340 265.600,188.184 260.272,189.580 255.906 C 190.835 251.982,186.596 249.694,182.960 252.332 M195.578 252.333 C 187.817 257.277,186.606 268.199,194.169 265.039 C 196.748 263.961,201.614 258.521,202.808 255.378 C 204.054 252.102,199.170 250.045,195.578 252.333 M186.399 254.900 C 186.396 256.657,181.739 262.400,180.316 262.400 C 178.680 262.400,179.219 260.036,181.486 257.269 C 183.842 254.394,186.401 253.160,186.399 254.900 M198.794 254.592 C 199.690 255.673,194.631 262.400,192.922 262.400 C 191.066 262.400,192.141 259.575,195.208 256.392 C 197.663 253.843,198.022 253.663,198.794 254.592 M264.258 255.007 C 264.754 256.300,262.627 259.462,259.915 261.463 C 257.351 263.355,256.960 262.444,258.785 258.829 C 260.503 255.426,263.591 253.270,264.258 255.007 M210.906 256.458 C 209.593 258.695,204.800 262.867,204.800 261.774 C 204.800 260.205,210.321 254.457,211.266 255.041 C 211.457 255.159,211.295 255.797,210.906 256.458 " stroke="none" fill="#080808" fill-rule="evenodd"></path><path id="path2" d="M299.000 81.749 C 295.730 82.908,294.968 83.385,292.252 85.967 C 290.008 88.101,286.800 92.324,286.800 93.145 C 286.800 93.358,286.665 93.593,286.500 93.667 C 285.985 93.896,273.367 118.830,271.554 123.200 C 271.053 124.410,270.539 125.490,270.413 125.600 C 270.218 125.771,265.453 136.172,262.624 142.600 C 259.168 150.457,258.998 150.776,258.400 150.504 C 251.948 147.570,236.653 153.942,224.257 164.728 C 219.057 169.252,208.400 180.903,208.400 182.063 C 208.400 182.219,207.320 183.962,206.000 185.936 C 204.680 187.909,203.600 189.626,203.600 189.752 C 203.600 189.877,202.317 192.639,200.748 195.890 C 193.541 210.828,171.041 226.046,163.267 221.242 C 161.983 220.448,173.751 209.584,177.308 208.279 C 177.697 208.136,179.082 207.295,180.386 206.409 C 181.690 205.524,182.864 204.800,182.995 204.800 C 183.993 204.800,188.382 200.275,189.030 198.577 C 191.229 192.819,186.859 186.010,180.744 185.665 C 177.493 185.481,177.422 185.305,179.867 183.494 L 181.734 182.111 183.490 183.349 C 186.857 185.722,193.479 185.172,197.378 182.196 C 198.384 181.428,199.348 180.800,199.520 180.800 C 200.808 180.800,205.161 174.602,206.398 171.005 C 210.251 159.807,200.646 151.786,188.200 155.807 C 187.320 156.091,185.520 156.621,184.200 156.985 C 179.811 158.194,170.265 162.547,168.400 164.190 C 168.070 164.481,167.092 165.113,166.226 165.594 C 160.268 168.907,151.582 178.191,148.663 184.364 C 146.820 188.261,146.763 197.107,148.553 201.322 L 149.705 204.036 148.783 205.018 C 148.276 205.558,147.742 206.000,147.597 206.000 C 147.082 206.000,144.114 209.032,142.506 211.200 C 139.674 215.019,139.134 216.424,138.854 220.689 L 138.600 224.555 137.200 223.345 C 136.430 222.679,135.530 222.036,135.200 221.915 C 134.363 221.607,120.904 208.794,111.828 199.665 L 104.256 192.048 105.428 191.574 C 113.341 188.368,126.249 181.600,131.506 177.900 C 133.304 176.635,134.880 175.600,135.009 175.600 C 135.137 175.600,136.538 174.574,138.121 173.319 C 149.682 164.158,157.315 154.685,160.191 145.929 C 161.687 141.378,161.690 131.721,160.199 127.758 C 157.282 120.010,147.491 111.395,138.823 108.951 C 137.600 108.606,135.880 108.091,135.000 107.807 C 130.148 106.241,110.765 105.973,102.800 107.363 C 96.054 108.539,80.496 112.528,80.000 113.208 C 79.890 113.359,78.810 113.803,77.600 114.196 C 71.853 116.060,57.934 122.434,53.726 125.128 C 52.805 125.718,51.185 126.719,50.126 127.354 C 47.511 128.921,44.331 131.300,41.134 134.081 C 39.668 135.356,38.298 136.400,38.091 136.400 C 37.049 136.400,30.416 144.886,28.710 148.400 C 27.189 151.533,26.595 158.932,27.692 161.074 C 30.106 165.784,31.277 167.143,34.396 168.850 C 37.983 170.813,44.241 171.185,47.124 169.607 C 47.496 169.403,48.610 168.896,49.600 168.479 C 50.590 168.062,52.257 167.064,53.303 166.261 C 54.350 165.457,55.371 164.800,55.572 164.800 C 56.507 164.800,61.488 159.348,61.739 158.050 C 62.202 155.654,62.016 153.831,61.165 152.435 C 60.435 151.239,60.408 151.027,60.946 150.726 C 61.284 150.537,61.827 150.116,62.152 149.791 C 62.477 149.466,62.840 149.200,62.959 149.200 C 63.078 149.200,64.485 148.345,66.085 147.300 C 69.133 145.310,72.695 143.301,75.400 142.045 C 76.280 141.637,78.435 140.637,80.190 139.823 C 81.944 139.010,83.907 138.239,84.552 138.110 C 85.814 137.857,85.807 137.931,84.370 140.011 C 83.668 141.028,82.484 143.121,80.304 147.200 C 79.658 148.410,78.515 150.414,77.764 151.652 C 77.014 152.891,76.400 154.020,76.400 154.160 C 76.400 154.301,75.980 155.087,75.466 155.908 C 74.952 156.729,73.753 158.840,72.801 160.600 C 71.850 162.360,70.175 165.420,69.080 167.400 C 67.094 170.990,65.233 174.411,63.205 178.200 C 59.778 184.600,58.656 186.644,58.364 187.019 C 58.184 187.249,57.391 188.689,56.601 190.219 C 55.811 191.748,54.467 194.260,53.615 195.800 C 52.762 197.340,51.446 199.770,50.690 201.200 C 49.935 202.630,48.592 205.150,47.706 206.800 C 36.314 228.024,33.999 233.902,34.001 241.599 C 34.004 247.968,35.138 249.633,40.800 251.575 L 43.400 252.467 48.600 251.432 C 55.365 250.086,59.745 246.824,61.226 242.029 C 61.469 241.243,62.102 239.650,62.634 238.489 C 63.165 237.328,63.600 236.225,63.600 236.038 C 63.600 235.014,78.470 203.851,79.163 203.423 C 79.330 203.320,80.659 204.532,82.116 206.117 C 97.183 222.516,107.591 233.170,114.243 239.005 C 117.893 242.206,126.347 248.400,127.067 248.400 C 127.277 248.400,128.249 248.799,129.225 249.287 C 134.757 252.049,142.330 250.169,147.689 244.703 L 150.779 241.552 153.715 242.376 C 155.330 242.829,157.495 243.200,158.526 243.200 C 160.839 243.200,160.848 243.399,158.623 245.492 C 150.971 252.693,148.276 262.879,152.988 266.790 C 153.423 267.151,153.268 267.612,152.161 269.257 C 149.035 273.904,151.605 278.400,157.387 278.400 C 160.590 278.400,162.207 277.419,167.680 272.155 C 173.042 267.000,172.639 267.185,174.903 268.839 C 177.001 270.371,181.428 270.396,184.312 268.893 L 185.936 268.046 187.998 269.074 C 190.606 270.374,195.009 270.278,197.283 268.872 L 198.666 268.018 200.233 268.837 C 201.546 269.524,202.346 269.631,205.162 269.497 C 207.285 269.396,209.054 269.526,209.962 269.851 C 213.727 271.197,219.265 269.262,221.154 265.941 C 221.968 264.510,222.061 264.518,222.941 266.100 C 224.462 268.833,225.706 269.400,230.184 269.400 C 234.843 269.400,235.353 269.218,240.456 265.732 L 242.313 264.464 242.554 265.669 C 242.814 266.969,244.800 269.068,246.315 269.644 C 248.811 270.593,259.767 270.061,262.115 268.876 C 264.290 267.779,264.364 267.770,265.271 268.478 C 266.974 269.807,270.275 270.528,273.171 270.204 C 276.301 269.854,277.710 269.857,281.303 270.220 C 288.887 270.987,297.369 263.999,294.763 259.131 C 294.397 258.448,294.518 258.109,295.503 257.057 C 302.116 249.990,293.462 242.194,284.200 246.874 C 282.403 247.782,282.078 247.832,281.000 247.360 C 279.328 246.630,274.911 246.674,272.650 247.445 C 270.197 248.281,270.111 248.117,271.680 245.595 C 273.157 243.219,273.745 238.425,272.711 237.191 C 269.593 233.471,264.049 234.419,261.162 239.166 C 260.168 240.801,259.952 240.737,258.913 238.500 C 256.787 233.920,250.982 233.423,247.596 237.531 L 246.420 238.958 245.510 238.124 C 241.909 234.824,238.897 234.914,233.696 238.477 C 232.758 239.119,231.399 239.892,230.675 240.195 L 229.358 240.745 228.862 239.063 C 228.140 236.619,225.159 234.601,222.847 234.992 C 220.073 235.461,214.432 241.006,213.443 244.237 C 213.070 245.452,211.631 246.628,209.800 247.212 C 208.920 247.493,207.533 248.143,206.717 248.656 C 205.600 249.359,205.155 249.467,204.917 249.094 C 203.475 246.845,197.891 246.105,194.126 247.666 L 192.037 248.532 189.719 247.482 L 187.400 246.433 187.537 244.212 C 187.643 242.503,187.482 241.666,186.837 240.573 C 185.698 238.642,185.748 238.480,187.735 237.628 C 189.295 236.959,192.876 234.592,197.439 231.214 C 199.222 229.893,200.000 229.692,200.000 230.552 C 200.000 231.206,203.597 233.995,206.292 235.430 C 213.369 239.199,224.281 234.844,235.629 223.721 C 241.760 217.711,241.483 217.883,241.797 219.900 C 242.686 225.619,242.870 226.093,245.003 228.183 C 249.335 232.426,249.863 232.600,258.400 232.600 L 265.400 232.600 268.831 230.907 C 274.910 227.907,289.200 213.836,289.200 210.849 C 289.200 210.602,289.347 210.400,289.527 210.400 C 290.089 210.400,291.201 206.223,291.186 204.165 C 291.136 197.149,288.936 192.103,285.255 190.565 C 282.024 189.215,280.458 190.242,273.618 198.194 C 268.198 204.496,263.341 209.475,262.973 209.107 C 262.270 208.403,267.028 193.522,270.456 185.704 C 270.865 184.772,271.200 183.847,271.200 183.650 C 271.200 183.184,274.580 174.801,275.832 172.160 C 276.365 171.038,276.800 170.011,276.800 169.878 C 276.800 169.559,280.145 161.680,281.632 158.499 C 282.274 157.123,282.800 155.903,282.800 155.788 C 282.800 155.672,283.411 154.277,284.158 152.689 C 285.903 148.977,287.550 145.420,290.403 139.200 C 292.846 133.874,296.081 127.091,301.278 116.400 C 312.531 93.250,312.800 92.611,312.800 89.006 C 312.800 82.342,306.568 79.065,299.000 81.749 M327.427 85.441 C 323.881 86.298,317.200 92.289,317.200 94.611 C 317.200 94.781,316.760 95.838,316.222 96.960 C 315.683 98.082,314.829 100.125,314.324 101.500 C 313.818 102.875,313.268 104.000,313.102 104.000 C 312.936 104.000,312.800 104.230,312.800 104.512 C 312.800 104.794,312.155 106.549,311.366 108.412 C 310.577 110.275,309.660 112.610,309.326 113.600 C 308.993 114.590,308.475 115.940,308.175 116.600 C 306.173 121.004,303.649 128.872,303.362 131.600 C 302.377 140.973,317.703 145.831,322.556 137.684 C 322.800 137.274,323.900 135.603,325.000 133.971 C 332.204 123.284,341.266 101.928,341.879 94.190 C 342.468 86.767,336.608 83.220,327.427 85.441 M307.631 86.769 C 309.406 88.544,308.999 89.830,302.300 103.600 C 300.321 107.670,297.845 112.800,296.799 115.000 C 295.753 117.200,294.140 120.530,293.214 122.400 C 288.828 131.261,277.339 156.415,273.665 165.200 C 259.526 199.011,255.650 212.686,259.606 214.803 C 262.770 216.497,267.764 212.557,277.990 200.300 C 284.166 192.898,284.893 192.968,286.280 201.095 L 286.947 205.007 285.894 207.307 C 283.053 213.512,272.767 223.973,266.726 226.800 C 258.198 230.791,248.638 228.633,246.711 222.282 C 245.870 219.513,246.106 210.849,247.133 206.800 C 248.554 201.191,248.293 201.188,244.303 206.766 C 227.390 230.406,208.991 238.657,202.382 225.564 C 200.783 222.396,201.030 222.358,195.738 226.579 C 184.522 235.526,175.396 238.911,162.400 238.945 C 157.770 238.957,157.135 238.863,153.825 237.679 C 149.099 235.988,149.292 235.942,146.182 239.494 C 136.617 250.418,129.792 248.173,108.437 227.078 C 102.427 221.141,83.711 201.398,79.629 196.688 C 78.327 195.186,78.229 195.144,77.683 195.853 C 77.196 196.486,66.400 218.241,66.400 218.590 C 66.400 218.656,65.342 220.935,64.048 223.655 C 61.397 229.230,59.914 232.601,57.853 237.736 C 54.974 244.908,53.981 245.842,48.029 246.971 C 35.096 249.424,34.777 241.968,46.817 218.600 C 49.934 212.549,58.438 196.686,66.116 182.600 C 68.754 177.760,71.305 173.080,71.784 172.200 C 86.280 145.606,92.827 134.549,96.139 131.062 C 98.943 128.110,98.615 127.870,93.893 129.420 C 81.888 133.360,68.441 139.878,59.807 145.943 C 50.966 152.153,46.659 159.063,53.660 155.804 C 60.250 152.736,58.103 157.602,50.698 162.517 C 40.893 169.026,31.814 165.863,31.830 155.944 C 31.866 133.635,96.740 104.813,131.342 111.733 C 155.778 116.620,164.091 135.352,150.356 154.577 C 141.498 166.975,123.568 179.353,102.224 187.806 C 99.377 188.934,96.967 190.099,96.868 190.396 C 96.405 191.785,130.475 224.387,137.371 229.154 C 142.423 232.646,146.687 233.919,145.071 231.452 C 143.194 228.588,142.607 220.590,144.038 217.400 C 145.589 213.944,148.687 210.699,153.961 207.003 C 157.659 204.412,157.683 204.364,155.822 203.266 C 152.343 201.213,150.623 194.343,152.131 188.526 C 156.303 172.444,191.909 153.325,201.700 161.910 C 202.888 162.952,202.689 168.864,201.376 171.498 C 197.393 179.490,185.200 183.614,185.200 176.970 C 185.200 176.242,185.019 175.536,184.799 175.399 C 183.161 174.387,167.924 186.657,165.337 191.071 C 163.242 194.646,165.017 194.818,173.000 191.815 C 180.473 189.004,182.118 189.258,184.723 193.626 L 185.573 195.051 184.736 196.744 C 183.756 198.725,182.896 199.423,177.000 203.028 C 167.370 208.915,157.600 217.804,157.600 220.680 C 157.600 227.314,171.313 228.415,180.962 222.557 C 191.434 216.199,200.761 206.488,205.238 197.283 C 211.145 185.136,217.554 176.650,226.906 168.590 C 240.071 157.244,251.994 152.453,258.961 155.708 C 260.259 156.315,261.357 156.764,261.400 156.706 C 261.501 156.569,265.966 146.670,269.386 139.000 C 276.504 123.035,289.007 97.835,292.109 93.200 C 296.565 86.540,304.227 83.366,307.631 86.769 M336.549 90.857 C 340.802 95.538,321.224 137.531,314.702 137.716 C 312.960 137.765,309.777 135.783,308.461 133.830 L 307.522 132.437 308.605 129.118 C 311.648 119.791,319.877 99.400,322.192 95.449 C 325.516 89.778,333.305 87.287,336.549 90.857 M113.066 125.276 C 108.146 125.734,100.375 127.267,100.275 127.800 C 100.234 128.020,100.920 128.298,101.800 128.418 C 103.769 128.687,106.831 130.446,108.236 132.116 C 110.306 134.575,109.577 136.247,95.042 162.381 C 88.285 174.531,86.861 177.600,87.979 177.600 C 88.188 177.600,89.853 177.132,91.679 176.561 C 116.703 168.730,146.904 139.878,139.811 130.579 C 137.295 127.280,125.310 124.194,117.600 124.859 C 117.270 124.887,115.230 125.075,113.066 125.276 M126.400 129.944 C 132.450 130.868,136.400 132.624,136.400 134.389 C 136.400 136.096,133.042 141.621,129.860 145.148 C 125.402 150.090,114.031 160.400,113.039 160.400 C 112.916 160.400,111.486 161.293,109.861 162.385 C 101.247 168.171,95.213 170.576,97.519 167.302 C 97.946 166.696,98.724 165.404,99.248 164.431 C 99.771 163.458,100.772 161.658,101.471 160.431 C 102.170 159.204,103.118 157.414,103.577 156.454 C 104.036 155.494,104.778 154.192,105.227 153.562 C 105.676 152.931,107.654 149.239,109.622 145.357 L 113.200 138.299 113.200 134.923 C 113.200 133.066,113.014 131.199,112.786 130.774 C 112.417 130.084,112.514 129.997,113.686 129.972 C 114.409 129.956,115.360 129.783,115.800 129.586 C 116.792 129.143,122.397 129.332,126.400 129.944 M364.594 132.793 C 362.591 133.005,359.963 133.669,357.594 134.563 C 355.507 135.350,353.665 135.996,353.501 135.997 C 353.179 136.000,349.388 137.702,345.200 139.723 C 343.770 140.413,341.472 141.658,340.093 142.489 C 338.714 143.320,337.486 144.000,337.365 144.000 C 337.045 144.000,332.165 147.475,329.663 149.484 C 328.488 150.428,327.399 151.200,327.242 151.200 C 326.485 151.200,319.732 158.618,317.593 161.800 C 309.978 173.128,311.775 185.891,321.664 190.712 C 324.473 192.081,332.291 193.961,338.800 194.832 C 346.083 195.807,347.157 196.007,347.424 196.439 C 348.005 197.379,335.671 201.664,331.209 202.073 C 329.739 202.207,329.740 202.208,328.011 198.380 C 326.007 193.941,318.876 193.536,314.314 197.602 C 306.450 204.611,307.855 218.521,316.960 223.785 C 324.685 228.251,343.368 225.950,354.374 219.178 C 355.427 218.530,356.411 218.000,356.561 218.000 C 356.711 218.000,357.051 217.815,357.317 217.588 C 357.583 217.362,359.150 216.253,360.800 215.124 C 362.450 213.996,364.520 212.574,365.400 211.965 C 373.246 206.538,378.058 195.530,375.962 187.800 C 375.248 185.166,370.953 179.200,369.772 179.200 C 369.647 179.200,368.792 178.693,367.872 178.072 C 363.727 175.278,353.487 172.828,341.300 171.717 C 340.145 171.612,339.200 171.401,339.200 171.249 C 339.200 169.850,347.479 163.861,353.555 160.863 L 356.911 159.208 358.558 160.976 C 361.316 163.939,368.279 165.618,371.105 164.003 C 371.487 163.785,372.790 163.231,374.000 162.772 C 388.294 157.353,391.204 137.947,378.423 133.280 C 376.623 132.623,368.798 132.347,364.594 132.793 M375.750 137.365 C 385.526 139.665,383.788 152.731,372.986 158.142 C 366.561 161.361,360.430 159.933,361.950 155.571 C 362.913 152.810,362.166 152.588,357.357 154.202 C 349.262 156.919,341.912 161.681,335.361 168.452 C 329.241 174.777,329.370 174.928,342.079 176.369 C 363.338 178.779,371.207 182.754,371.904 191.435 C 372.712 201.505,359.394 213.829,341.200 219.848 L 336.600 221.369 329.800 221.363 C 318.112 221.352,314.009 218.446,314.002 210.173 C 313.995 200.556,322.389 194.939,325.004 202.811 C 325.641 204.730,327.126 206.304,328.881 206.921 C 330.078 207.342,340.469 204.947,344.718 203.271 C 356.304 198.701,359.030 193.352,350.436 192.052 C 325.006 188.206,321.337 187.015,318.753 181.765 C 313.372 170.835,324.144 156.089,345.779 144.769 C 358.566 138.079,368.428 135.643,375.750 137.365 M252.362 167.957 C 242.622 171.767,230.683 182.474,223.542 193.800 C 217.939 202.688,213.964 215.344,216.195 217.196 C 219.354 219.817,237.336 198.025,252.994 172.600 C 256.645 166.672,256.594 166.301,252.362 167.957 M242.790 179.827 C 242.408 180.831,241.837 181.674,238.724 185.837 C 237.886 186.957,237.200 187.996,237.200 188.145 C 237.200 188.295,236.060 189.898,234.667 191.708 C 233.273 193.519,230.758 196.800,229.076 199.000 C 222.304 207.861,221.227 208.388,224.855 201.065 C 227.957 194.803,231.251 190.339,237.228 184.300 C 242.913 178.556,243.432 178.139,242.790 179.827 M254.950 240.444 C 256.903 246.031,236.178 266.373,229.451 265.471 C 224.943 264.866,225.631 260.191,231.444 251.939 C 233.959 248.369,233.992 248.250,232.373 248.606 C 231.037 248.899,229.600 247.999,229.600 246.870 C 229.600 246.143,230.745 244.800,231.365 244.800 C 231.977 244.800,234.981 243.166,237.540 241.442 C 240.064 239.741,240.408 239.702,241.852 240.943 L 242.949 241.887 237.908 249.443 C 229.760 261.657,229.144 263.488,234.421 259.816 C 240.270 255.746,249.633 245.412,250.465 242.109 C 251.191 239.226,254.141 238.130,254.950 240.444 M269.058 240.408 C 268.925 241.073,267.649 243.530,266.222 245.869 C 263.457 250.403,263.377 250.800,265.242 250.800 C 266.895 250.800,268.400 252.374,268.400 254.103 C 268.400 258.691,260.449 266.624,256.670 265.807 C 254.968 265.439,253.448 265.438,250.734 265.801 C 246.250 266.402,245.494 264.368,248.199 258.982 C 249.188 257.012,249.998 255.068,249.999 254.662 C 250.002 252.670,253.343 250.157,254.600 251.200 C 255.558 251.995,255.333 252.878,253.006 257.471 C 250.938 261.552,250.861 261.808,251.660 261.935 C 252.932 262.137,253.606 261.215,257.600 253.800 C 263.584 242.691,266.152 239.200,268.339 239.200 C 269.195 239.200,269.274 239.332,269.058 240.408 M179.874 240.025 C 183.633 241.446,183.912 243.325,180.874 246.766 C 179.594 248.214,178.155 250.210,177.675 251.200 C 177.195 252.190,175.812 254.162,174.601 255.581 C 172.182 258.419,172.016 258.800,173.200 258.800 C 174.832 258.800,174.018 260.328,170.922 263.072 C 169.230 264.572,165.870 267.654,163.457 269.919 C 159.089 274.020,159.061 274.038,157.238 273.919 C 154.262 273.725,154.555 272.935,159.438 267.980 C 164.035 263.314,164.257 262.920,161.785 263.800 C 155.765 265.945,153.124 261.829,156.469 255.517 C 159.770 249.288,168.487 242.438,175.765 240.354 C 178.768 239.494,178.521 239.514,179.874 240.025 M224.606 240.009 C 224.833 240.377,223.948 242.116,221.047 247.000 C 213.624 259.500,211.622 265.044,216.063 260.800 C 217.897 259.047,218.813 259.501,218.218 261.870 C 217.262 265.680,210.817 267.383,210.141 264.004 C 209.843 262.516,209.719 262.515,207.771 263.989 C 203.243 267.415,199.781 264.334,202.397 259.206 C 204.127 255.816,209.548 251.549,212.833 250.994 C 214.587 250.698,215.235 250.029,217.836 245.827 C 220.992 240.728,223.642 238.451,224.606 240.009 M174.921 243.963 C 168.389 246.541,159.200 255.500,159.200 259.291 C 159.200 261.612,160.060 261.288,167.400 256.205 C 169.160 254.986,171.230 253.450,172.000 252.792 L 173.400 251.594 172.300 250.764 C 170.431 249.353,171.144 247.200,173.480 247.200 C 175.105 247.200,179.200 244.430,179.200 243.330 C 179.200 242.541,178.122 242.701,174.921 243.963 M258.724 246.675 C 258.869 248.182,257.546 249.320,256.091 248.940 C 254.932 248.637,254.930 247.339,256.085 246.109 C 257.332 244.782,258.566 245.047,258.724 246.675 M226.400 250.703 C 226.400 251.006,225.973 251.826,225.452 252.527 C 224.931 253.227,224.049 254.952,223.493 256.359 L 222.482 258.918 221.802 257.604 C 221.022 256.095,221.074 255.925,223.680 251.463 C 225.293 248.701,226.400 248.392,226.400 250.703 M292.938 251.300 L 293.757 252.400 292.378 253.828 C 291.308 254.937,290.777 255.208,290.000 255.043 C 286.669 254.332,286.590 254.335,285.490 255.200 C 284.180 256.231,284.324 256.585,286.306 257.220 C 290.596 258.595,291.512 260.902,288.756 263.392 C 285.745 266.113,281.569 266.887,279.160 265.172 L 277.997 264.344 275.784 265.172 C 269.417 267.554,264.292 264.242,267.833 260.034 C 268.371 259.395,268.965 258.047,269.153 257.040 C 269.833 253.399,275.321 249.953,278.509 251.165 C 281.145 252.168,279.259 255.200,276.000 255.200 C 273.791 255.200,273.483 255.643,275.000 256.637 C 276.555 257.656,276.220 258.475,273.694 259.832 C 270.925 261.320,270.457 262.694,272.800 262.460 C 274.406 262.299,275.336 261.867,276.931 260.541 C 278.342 259.367,278.466 259.370,279.956 260.624 C 281.359 261.805,283.204 262.429,284.383 262.120 C 285.986 261.701,285.088 260.400,283.196 260.400 C 282.164 260.400,279.600 257.881,279.600 256.867 C 279.600 252.763,290.609 248.169,292.938 251.300 M188.008 251.404 C 191.164 253.036,190.450 256.746,186.033 261.664 C 182.602 265.485,178.842 266.878,176.982 265.018 C 172.833 260.870,182.716 248.668,188.008 251.404 M200.040 251.255 C 204.111 252.619,204.046 254.868,199.775 260.428 C 196.045 265.284,191.206 267.257,189.388 264.662 C 186.872 261.069,192.961 251.772,198.440 250.841 C 198.572 250.818,199.292 251.005,200.040 251.255 M182.957 256.082 C 179.205 259.540,178.371 264.175,182.057 261.086 C 183.339 260.011,186.400 255.675,186.400 254.934 C 186.400 253.880,184.749 254.431,182.957 256.082 M195.610 256.229 C 193.686 258.029,191.837 261.013,192.241 261.666 C 193.228 263.264,199.362 256.841,198.641 254.964 C 198.288 254.043,197.673 254.300,195.610 256.229 M262.146 255.167 C 259.571 256.738,256.707 262.000,258.427 262.000 C 260.269 262.000,265.000 256.094,264.197 254.795 C 263.856 254.244,263.578 254.294,262.146 255.167 M208.499 257.103 C 206.357 259.190,204.963 261.097,205.320 261.453 C 205.670 261.803,206.848 260.826,209.126 258.296 C 212.296 254.774,211.821 253.868,208.499 257.103 " stroke="none" fill="#f9f6f6" fill-rule="evenodd"></path></g></svg>